<svg xmlns="http://www.w3.org/2000/svg" xmlns:xlink="http://www.w3.org/1999/xlink" width="500" zoomAndPan="magnify" viewBox="0 0 375 374.999991" height="500" preserveAspectRatio="xMidYMid meet" version="1.0"><defs><filter x="0%" y="0%" width="100%" height="100%" id="e574bf220a"><feColorMatrix values="0 0 0 0 1 0 0 0 0 1 0 0 0 0 1 0 0 0 1 0" color-interpolation-filters="sRGB"/></filter><g/><clipPath id="39391676f9"><path d="M 0 0 L 375 0 L 375 375 L 0 375 Z M 0 0 " clip-rule="nonzero"/></clipPath><linearGradient x1="-49.634811" gradientTransform="matrix(3.000918, 0, 0, 2.999347, 148.949995, 41.757948)" y1="69.5" x2="75.326949" gradientUnits="userSpaceOnUse" y2="69.5" id="1f07c3b3c8"><stop stop-opacity="1" stop-color="rgb(100%, 87.059021%, 34.899902%)" offset="0"/><stop stop-opacity="1" stop-color="rgb(100%, 87.059021%, 34.899902%)" offset="0.25"/><stop stop-opacity="1" stop-color="rgb(100%, 87.059021%, 34.899902%)" offset="0.375"/><stop stop-opacity="1" stop-color="rgb(100%, 87.059021%, 34.899902%)" offset="0.390625"/><stop stop-opacity="1" stop-color="rgb(100%, 86.978149%, 34.886169%)" offset="0.398438"/><stop stop-opacity="1" stop-color="rgb(100%, 86.383057%, 34.793091%)" offset="0.402344"/><stop stop-opacity="1" stop-color="rgb(100%, 85.868835%, 34.713745%)" offset="0.40625"/><stop stop-opacity="1" stop-color="rgb(100%, 85.354614%, 34.632874%)" offset="0.410156"/><stop stop-opacity="1" stop-color="rgb(100%, 84.841919%, 34.553528%)" offset="0.414062"/><stop stop-opacity="1" stop-color="rgb(100%, 84.327698%, 34.474182%)" offset="0.417969"/><stop stop-opacity="1" stop-color="rgb(100%, 83.815002%, 34.394836%)" offset="0.421875"/><stop stop-opacity="1" stop-color="rgb(100%, 83.300781%, 34.313965%)" offset="0.425781"/><stop stop-opacity="1" stop-color="rgb(100%, 82.788086%, 34.234619%)" offset="0.429687"/><stop stop-opacity="1" stop-color="rgb(100%, 82.273865%, 34.153748%)" offset="0.433594"/><stop stop-opacity="1" stop-color="rgb(100%, 81.761169%, 34.074402%)" offset="0.4375"/><stop stop-opacity="1" stop-color="rgb(100%, 81.246948%, 33.99353%)" offset="0.441406"/><stop stop-opacity="1" stop-color="rgb(100%, 80.732727%, 33.914185%)" offset="0.445312"/><stop stop-opacity="1" stop-color="rgb(100%, 80.218506%, 33.834839%)" offset="0.449219"/><stop stop-opacity="1" stop-color="rgb(100%, 79.705811%, 33.755493%)" offset="0.453125"/><stop stop-opacity="1" stop-color="rgb(100%, 79.191589%, 33.674622%)" offset="0.457031"/><stop stop-opacity="1" stop-color="rgb(100%, 78.678894%, 33.595276%)" offset="0.460938"/><stop stop-opacity="1" stop-color="rgb(100%, 78.164673%, 33.514404%)" offset="0.464844"/><stop stop-opacity="1" stop-color="rgb(100%, 77.651978%, 33.435059%)" offset="0.46875"/><stop stop-opacity="1" stop-color="rgb(100%, 77.137756%, 33.354187%)" offset="0.472656"/><stop stop-opacity="1" stop-color="rgb(100%, 76.625061%, 33.274841%)" offset="0.476562"/><stop stop-opacity="1" stop-color="rgb(100%, 76.11084%, 33.195496%)" offset="0.480469"/><stop stop-opacity="1" stop-color="rgb(100%, 75.598145%, 33.11615%)" offset="0.484375"/><stop stop-opacity="1" stop-color="rgb(100%, 75.083923%, 33.035278%)" offset="0.488281"/><stop stop-opacity="1" stop-color="rgb(100%, 74.569702%, 32.955933%)" offset="0.492187"/><stop stop-opacity="1" stop-color="rgb(100%, 74.055481%, 32.875061%)" offset="0.496094"/><stop stop-opacity="1" stop-color="rgb(100%, 73.542786%, 32.795715%)" offset="0.5"/><stop stop-opacity="1" stop-color="rgb(100%, 73.028564%, 32.714844%)" offset="0.503906"/><stop stop-opacity="1" stop-color="rgb(100%, 72.515869%, 32.635498%)" offset="0.507812"/><stop stop-opacity="1" stop-color="rgb(100%, 72.001648%, 32.554626%)" offset="0.511719"/><stop stop-opacity="1" stop-color="rgb(100%, 71.488953%, 32.475281%)" offset="0.515625"/><stop stop-opacity="1" stop-color="rgb(100%, 70.974731%, 32.395935%)" offset="0.519531"/><stop stop-opacity="1" stop-color="rgb(100%, 70.462036%, 32.316589%)" offset="0.523438"/><stop stop-opacity="1" stop-color="rgb(100%, 69.947815%, 32.235718%)" offset="0.527344"/><stop stop-opacity="1" stop-color="rgb(100%, 69.43512%, 32.156372%)" offset="0.53125"/><stop stop-opacity="1" stop-color="rgb(100%, 68.920898%, 32.0755%)" offset="0.535156"/><stop stop-opacity="1" stop-color="rgb(100%, 68.406677%, 31.996155%)" offset="0.539062"/><stop stop-opacity="1" stop-color="rgb(100%, 67.892456%, 31.915283%)" offset="0.542969"/><stop stop-opacity="1" stop-color="rgb(100%, 67.379761%, 31.835938%)" offset="0.546875"/><stop stop-opacity="1" stop-color="rgb(100%, 66.86554%, 31.756592%)" offset="0.550781"/><stop stop-opacity="1" stop-color="rgb(100%, 66.352844%, 31.677246%)" offset="0.554688"/><stop stop-opacity="1" stop-color="rgb(100%, 65.838623%, 31.596375%)" offset="0.558594"/><stop stop-opacity="1" stop-color="rgb(100%, 65.325928%, 31.517029%)" offset="0.5625"/><stop stop-opacity="1" stop-color="rgb(100%, 64.811707%, 31.436157%)" offset="0.566406"/><stop stop-opacity="1" stop-color="rgb(100%, 64.299011%, 31.356812%)" offset="0.570312"/><stop stop-opacity="1" stop-color="rgb(100%, 63.78479%, 31.27594%)" offset="0.574219"/><stop stop-opacity="1" stop-color="rgb(100%, 63.272095%, 31.196594%)" offset="0.578125"/><stop stop-opacity="1" stop-color="rgb(100%, 62.757874%, 31.117249%)" offset="0.582031"/><stop stop-opacity="1" stop-color="rgb(100%, 62.243652%, 31.037903%)" offset="0.585938"/><stop stop-opacity="1" stop-color="rgb(100%, 61.729431%, 30.957031%)" offset="0.589844"/><stop stop-opacity="1" stop-color="rgb(100%, 61.216736%, 30.877686%)" offset="0.59375"/><stop stop-opacity="1" stop-color="rgb(100%, 60.702515%, 30.796814%)" offset="0.597656"/><stop stop-opacity="1" stop-color="rgb(100%, 60.189819%, 30.717468%)" offset="0.601562"/><stop stop-opacity="1" stop-color="rgb(100%, 59.675598%, 30.636597%)" offset="0.605469"/><stop stop-opacity="1" stop-color="rgb(100%, 59.162903%, 30.557251%)" offset="0.609375"/><stop stop-opacity="1" stop-color="rgb(100%, 58.648682%, 30.477905%)" offset="0.613281"/><stop stop-opacity="1" stop-color="rgb(100%, 58.135986%, 30.39856%)" offset="0.617187"/><stop stop-opacity="1" stop-color="rgb(100%, 57.621765%, 30.317688%)" offset="0.621094"/><stop stop-opacity="1" stop-color="rgb(100%, 57.107544%, 30.238342%)" offset="0.625"/><stop stop-opacity="1" stop-color="rgb(100%, 56.982422%, 30.218506%)" offset="0.75"/><stop stop-opacity="1" stop-color="rgb(100%, 56.858826%, 30.198669%)" offset="1"/></linearGradient><clipPath id="a5af095d74"><rect x="0" width="375" y="0" height="375"/></clipPath><clipPath id="8148c1ca06"><rect x="0" width="375" y="0" height="375"/></clipPath><clipPath id="e8dc3342e1"><rect x="0" width="375" y="0" height="375"/></clipPath><mask id="a7a06b2b62"><g filter="url(#e574bf220a)"><g transform="matrix(1, 0, 0, 1, 0, 0)"><g clip-path="url(#e8dc3342e1)"><g transform="matrix(1, 0, 0, 1, 0, 0)"><g clip-path="url(#8148c1ca06)"><g fill="#000000" fill-opacity="1"><g transform="translate(149.992802, 361.278235)"><g><path d="M 21.03125 -203.5625 C 21.03125 -208.269531 22.597656 -212.21875 25.734375 -215.40625 C 28.878906 -218.59375 32.753906 -220.1875 37.359375 -220.1875 C 41.960938 -220.1875 45.710938 -218.8125 48.609375 -216.0625 C 51.503906 -213.320312 52.953125 -209.796875 52.953125 -205.484375 C 52.953125 -201.066406 51.378906 -197.289062 48.234375 -194.15625 C 45.097656 -191.019531 41.273438 -189.453125 36.765625 -189.453125 C 32.359375 -189.453125 28.632812 -190.796875 25.59375 -193.484375 C 22.550781 -196.179688 21.03125 -199.539062 21.03125 -203.5625 Z M 26.765625 -57.21875 C 26.765625 -80.851562 26.46875 -98.132812 25.875 -109.0625 C 25.289062 -120 24.316406 -126.492188 22.953125 -128.546875 C 22.066406 -129.921875 19.023438 -130.972656 13.828125 -131.703125 C 8.628906 -132.441406 6.03125 -134.53125 6.03125 -137.96875 C 6.03125 -139.925781 6.835938 -141.664062 8.453125 -143.1875 C 10.078125 -144.707031 12.898438 -146.300781 16.921875 -147.96875 C 21.816406 -149.925781 26.691406 -151.519531 31.546875 -152.75 C 36.398438 -153.976562 40.25 -154.59375 43.09375 -154.59375 C 45.738281 -154.59375 47.597656 -153.832031 48.671875 -152.3125 C 49.753906 -150.789062 50.296875 -147.921875 50.296875 -143.703125 C 50.296875 -142.722656 50.25 -139.878906 50.15625 -135.171875 C 49.46875 -108.015625 49.125 -80.507812 49.125 -52.65625 C 49.125 -39.320312 49.414062 -30.347656 50 -25.734375 C 50.59375 -21.128906 51.578125 -18.191406 52.953125 -16.921875 C 54.023438 -15.929688 56.617188 -14.800781 60.734375 -13.53125 C 64.859375 -12.257812 66.921875 -10.347656 66.921875 -7.796875 C 66.921875 -4.753906 64.613281 -2.5 60 -1.03125 C 55.394531 0.4375 48.144531 1.171875 38.25 1.171875 C 27.851562 1.171875 20.320312 0.460938 15.65625 -0.953125 C 11 -2.378906 8.671875 -4.660156 8.671875 -7.796875 C 8.671875 -10.347656 10.726562 -12.257812 14.84375 -13.53125 C 18.96875 -14.800781 21.570312 -15.929688 22.65625 -16.921875 C 24.125 -18.285156 25.175781 -21.785156 25.8125 -27.421875 C 26.445312 -33.066406 26.765625 -43 26.765625 -57.21875 Z M 26.765625 -57.21875 "/></g></g></g></g></g></g></g></g></mask><clipPath id="ec7c588b35"><path d="M 0 0 L 375 0 L 375 375 L 0 375 Z M 0 0 " clip-rule="nonzero"/></clipPath><clipPath id="ed3aeff163"><rect x="0" width="375" y="0" height="375"/></clipPath><clipPath id="7b7e56fb5a"><rect x="0" width="375" y="0" height="375"/></clipPath><clipPath id="6e67e11368"><rect x="0" width="375" y="0" height="375"/></clipPath></defs><g transform="matrix(1, 0, 0, 1, 0, 0)"><g clip-path="url(#6e67e11368)"><g transform="matrix(1, 0, 0, 1, 0, 0)"><g clip-path="url(#7b7e56fb5a)"><g mask="url(#a7a06b2b62)"><g transform="matrix(1, 0, 0, 1, 0, 0)"><g clip-path="url(#ed3aeff163)"><g clip-path="url(#ec7c588b35)"><rect x="-201.3" fill="url(#1f07c3b3c8)" width="777.6" height="777.599981" y="-201.299995"/></g></g></g></g></g></g></g></g><path fill="#ffbd54" d="M 184.804688 11.875 C 90.8125 10.6875 28.839844 116.4375 75.707031 197.824219 L 92.679688 197.820312 C 43.792969 126.398438 98.148438 25.226562 184.804688 26.417969 C 271.484375 25.238281 325.921875 126.375 276.925781 197.824219 L 293.949219 197.820312 C 340.9375 116.441406 278.832031 10.675781 184.804688 11.875 Z M 184.804688 11.875 " fill-opacity="1" fill-rule="nonzero"/><path fill="#ffbd54" d="M 184.804688 60.367188 C 183.550781 60.371094 182.300781 60.402344 181.050781 60.464844 C 179.800781 60.53125 178.550781 60.625 177.308594 60.75 C 176.0625 60.875 174.820312 61.027344 173.582031 61.214844 C 172.34375 61.398438 171.109375 61.613281 169.882812 61.859375 C 168.65625 62.105469 167.4375 62.382812 166.222656 62.6875 C 165.007812 62.992188 163.800781 63.328125 162.605469 63.695312 C 161.40625 64.058594 160.21875 64.453125 159.042969 64.875 C 157.863281 65.300781 156.695312 65.75 155.539062 66.230469 C 154.386719 66.710938 153.242188 67.21875 152.109375 67.757812 C 150.980469 68.292969 149.863281 68.855469 148.757812 69.449219 C 147.65625 70.039062 146.566406 70.65625 145.492188 71.300781 C 144.421875 71.945312 143.363281 72.617188 142.324219 73.3125 C 141.285156 74.007812 140.261719 74.730469 139.257812 75.476562 C 138.25 76.222656 137.265625 76.996094 136.300781 77.789062 C 135.332031 78.585938 134.386719 79.402344 133.457031 80.242188 C 132.53125 81.085938 131.625 81.949219 130.742188 82.835938 C 129.855469 83.71875 128.992188 84.628906 128.152344 85.554688 C 127.3125 86.484375 126.496094 87.429688 125.703125 88.398438 C 124.910156 89.367188 124.140625 90.355469 123.394531 91.359375 C 122.648438 92.367188 121.929688 93.390625 121.234375 94.429688 C 120.539062 95.472656 119.871094 96.527344 119.226562 97.601562 C 118.582031 98.675781 117.96875 99.765625 117.378906 100.871094 C 116.789062 101.972656 116.226562 103.089844 115.691406 104.222656 C 115.15625 105.355469 114.648438 106.5 114.167969 107.65625 C 113.691406 108.8125 113.242188 109.980469 112.820312 111.160156 C 112.398438 112.335938 112.003906 113.523438 111.640625 114.722656 C 111.277344 115.921875 110.945312 117.128906 110.640625 118.339844 C 110.335938 119.554688 110.0625 120.777344 109.816406 122.003906 C 109.574219 123.230469 109.359375 124.464844 109.175781 125.703125 C 108.992188 126.941406 108.835938 128.183594 108.714844 129.429688 C 108.589844 130.675781 108.5 131.921875 108.4375 133.171875 C 108.375 134.421875 108.34375 135.675781 108.34375 136.925781 C 108.335938 144.054688 109.324219 151.042969 111.308594 157.890625 L 126.484375 157.890625 C 126.066406 156.726562 125.683594 155.546875 125.335938 154.359375 C 124.988281 153.171875 124.675781 151.976562 124.398438 150.769531 C 124.121094 149.5625 123.878906 148.347656 123.675781 147.128906 C 123.472656 145.90625 123.304688 144.683594 123.175781 143.453125 C 123.042969 142.21875 122.949219 140.988281 122.894531 139.75 C 122.835938 138.515625 122.816406 137.277344 122.835938 136.039062 C 122.851562 134.800781 122.90625 133.566406 123 132.332031 C 123.089844 131.097656 123.21875 129.867188 123.382812 128.640625 C 123.546875 127.414062 123.75 126.191406 123.988281 124.976562 C 124.226562 123.761719 124.5 122.554688 124.8125 121.359375 C 125.121094 120.160156 125.46875 118.972656 125.847656 117.796875 C 126.230469 116.617188 126.648438 115.453125 127.097656 114.300781 C 127.550781 113.148438 128.035156 112.007812 128.554688 110.886719 C 129.074219 109.761719 129.628906 108.65625 130.214844 107.566406 C 130.800781 106.476562 131.417969 105.402344 132.066406 104.351562 C 132.71875 103.296875 133.398438 102.265625 134.109375 101.25 C 134.824219 100.238281 135.5625 99.25 136.335938 98.28125 C 137.105469 97.3125 137.90625 96.367188 138.734375 95.449219 C 139.5625 94.527344 140.414062 93.632812 141.296875 92.765625 C 142.179688 91.894531 143.085938 91.054688 144.015625 90.238281 C 144.949219 89.421875 145.902344 88.636719 146.882812 87.878906 C 147.863281 87.121094 148.863281 86.394531 149.886719 85.695312 C 150.90625 85 151.949219 84.332031 153.011719 83.699219 C 154.074219 83.0625 155.15625 82.460938 156.253906 81.890625 C 157.351562 81.320312 158.464844 80.78125 159.597656 80.277344 C 160.726562 79.773438 161.871094 79.304688 163.03125 78.871094 C 164.191406 78.433594 165.359375 78.035156 166.542969 77.667969 C 167.726562 77.304688 168.917969 76.976562 170.121094 76.679688 C 171.324219 76.386719 172.535156 76.128906 173.75 75.910156 C 174.96875 75.6875 176.191406 75.503906 177.421875 75.355469 C 178.652344 75.207031 179.882812 75.097656 181.117188 75.023438 C 182.355469 74.949219 183.589844 74.910156 184.828125 74.910156 C 186.066406 74.910156 187.300781 74.949219 188.539062 75.023438 C 189.773438 75.097656 191.007812 75.207031 192.234375 75.355469 C 193.464844 75.503906 194.6875 75.6875 195.90625 75.910156 C 197.121094 76.128906 198.332031 76.386719 199.535156 76.683594 C 200.738281 76.976562 201.929688 77.304688 203.113281 77.667969 C 204.296875 78.035156 205.464844 78.433594 206.625 78.871094 C 207.785156 79.304688 208.929688 79.773438 210.058594 80.277344 C 211.191406 80.78125 212.304688 81.320312 213.402344 81.890625 C 214.5 82.460938 215.582031 83.0625 216.644531 83.699219 C 217.707031 84.332031 218.75 85 219.769531 85.699219 C 220.792969 86.394531 221.792969 87.121094 222.773438 87.878906 C 223.753906 88.636719 224.707031 89.421875 225.640625 90.238281 C 226.570312 91.054688 227.476562 91.894531 228.359375 92.765625 C 229.242188 93.632812 230.09375 94.527344 230.921875 95.449219 C 231.75 96.367188 232.550781 97.3125 233.320312 98.28125 C 234.09375 99.25 234.835938 100.238281 235.546875 101.25 C 236.257812 102.265625 236.9375 103.296875 237.589844 104.351562 C 238.238281 105.402344 238.855469 106.476562 239.441406 107.566406 C 240.027344 108.65625 240.582031 109.761719 241.101562 110.886719 C 241.621094 112.011719 242.105469 113.148438 242.558594 114.300781 C 243.007812 115.453125 243.425781 116.617188 243.808594 117.796875 C 244.1875 118.972656 244.535156 120.160156 244.84375 121.359375 C 245.15625 122.558594 245.429688 123.761719 245.667969 124.976562 C 245.90625 126.191406 246.109375 127.414062 246.273438 128.640625 C 246.4375 129.867188 246.566406 131.097656 246.65625 132.332031 C 246.75 133.566406 246.804688 134.800781 246.820312 136.039062 C 246.839844 137.277344 246.820312 138.515625 246.761719 139.75 C 246.707031 140.988281 246.613281 142.222656 246.480469 143.453125 C 246.351562 144.683594 246.183594 145.910156 245.980469 147.128906 C 245.777344 148.351562 245.535156 149.5625 245.257812 150.769531 C 244.980469 151.976562 244.667969 153.171875 244.320312 154.363281 C 243.972656 155.550781 243.589844 156.726562 243.171875 157.890625 L 258.394531 157.890625 C 260.375 151.042969 261.367188 144.054688 261.363281 136.925781 C 261.359375 135.671875 261.328125 134.421875 261.265625 133.171875 C 261.203125 131.917969 261.109375 130.671875 260.984375 129.425781 C 260.863281 128.179688 260.707031 126.933594 260.523438 125.695312 C 260.339844 124.457031 260.121094 123.222656 259.878906 121.996094 C 259.632812 120.765625 259.355469 119.546875 259.050781 118.332031 C 258.746094 117.117188 258.410156 115.910156 258.046875 114.710938 C 257.683594 113.511719 257.289062 112.324219 256.867188 111.144531 C 256.445312 109.964844 255.992188 108.796875 255.511719 107.640625 C 255.03125 106.484375 254.523438 105.339844 253.988281 104.207031 C 253.453125 103.074219 252.890625 101.957031 252.296875 100.851562 C 251.707031 99.75 251.089844 98.660156 250.445312 97.585938 C 249.800781 96.511719 249.128906 95.453125 248.433594 94.410156 C 247.738281 93.371094 247.015625 92.347656 246.269531 91.339844 C 245.523438 90.335938 244.753906 89.347656 243.960938 88.378906 C 243.164062 87.410156 242.347656 86.464844 241.503906 85.535156 C 240.664062 84.609375 239.800781 83.699219 238.914062 82.816406 C 238.027344 81.929688 237.121094 81.066406 236.195312 80.222656 C 235.265625 79.382812 234.316406 78.566406 233.351562 77.769531 C 232.382812 76.976562 231.394531 76.207031 230.390625 75.457031 C 229.382812 74.710938 228.359375 73.992188 227.316406 73.296875 C 226.277344 72.597656 225.21875 71.929688 224.144531 71.285156 C 223.070312 70.640625 221.980469 70.023438 220.875 69.433594 C 219.773438 68.839844 218.652344 68.277344 217.523438 67.742188 C 216.390625 67.207031 215.246094 66.695312 214.089844 66.21875 C 212.929688 65.738281 211.761719 65.285156 210.585938 64.863281 C 209.40625 64.441406 208.214844 64.046875 207.019531 63.683594 C 205.820312 63.320312 204.613281 62.984375 203.398438 62.679688 C 202.183594 62.375 200.960938 62.097656 199.734375 61.851562 C 198.503906 61.605469 197.273438 61.390625 196.03125 61.207031 C 194.792969 61.023438 193.550781 60.867188 192.304688 60.746094 C 191.058594 60.621094 189.808594 60.527344 188.558594 60.464844 C 187.308594 60.402344 186.054688 60.371094 184.804688 60.367188 Z M 184.804688 60.367188 " fill-opacity="1" fill-rule="nonzero"/><path fill="#ffbd54" d="M 184.882812 168.78125 C 185.535156 168.773438 186.1875 168.734375 186.835938 168.660156 C 187.484375 168.589844 188.128906 168.488281 188.769531 168.351562 C 189.40625 168.21875 190.039062 168.050781 190.660156 167.855469 C 191.285156 167.660156 191.898438 167.433594 192.496094 167.179688 C 193.097656 166.921875 193.6875 166.636719 194.257812 166.324219 C 194.832031 166.011719 195.390625 165.671875 195.929688 165.304688 C 196.46875 164.9375 196.992188 164.542969 197.492188 164.125 C 197.992188 163.707031 198.472656 163.265625 198.933594 162.800781 C 199.390625 162.335938 199.828125 161.851562 200.238281 161.34375 C 200.648438 160.835938 201.035156 160.3125 201.394531 159.765625 C 201.757812 159.222656 202.089844 158.660156 202.394531 158.082031 C 202.699219 157.507812 202.976562 156.914062 203.226562 156.3125 C 203.472656 155.707031 203.691406 155.09375 203.878906 154.464844 C 204.066406 153.839844 204.226562 153.207031 204.351562 152.566406 C 204.476562 151.925781 204.574219 151.28125 204.636719 150.628906 C 204.699219 149.980469 204.730469 149.328125 204.730469 148.675781 C 204.730469 148.023438 204.699219 147.371094 204.636719 146.722656 C 204.574219 146.070312 204.476562 145.425781 204.351562 144.785156 C 204.226562 144.144531 204.066406 143.511719 203.878906 142.886719 C 203.691406 142.261719 203.472656 141.644531 203.226562 141.039062 C 202.976562 140.4375 202.699219 139.847656 202.394531 139.269531 C 202.089844 138.691406 201.757812 138.128906 201.394531 137.585938 C 201.035156 137.039062 200.648438 136.515625 200.238281 136.007812 C 199.828125 135.5 199.390625 135.015625 198.933594 134.550781 C 198.472656 134.085938 197.992188 133.644531 197.492188 133.226562 C 196.988281 132.808594 196.46875 132.414062 195.929688 132.046875 C 195.386719 131.679688 194.832031 131.339844 194.257812 131.027344 C 193.683594 130.714844 193.097656 130.429688 192.496094 130.175781 C 191.894531 129.917969 191.285156 129.691406 190.660156 129.496094 C 190.039062 129.300781 189.40625 129.136719 188.769531 129 C 188.128906 128.867188 187.484375 128.761719 186.835938 128.691406 C 186.1875 128.617188 185.535156 128.578125 184.882812 128.570312 C 184.230469 128.578125 183.578125 128.617188 182.929688 128.691406 C 182.28125 128.761719 181.636719 128.867188 180.996094 129 C 180.355469 129.136719 179.726562 129.300781 179.101562 129.496094 C 178.480469 129.691406 177.867188 129.917969 177.265625 130.175781 C 176.664062 130.429688 176.078125 130.714844 175.503906 131.027344 C 174.933594 131.339844 174.375 131.679688 173.835938 132.046875 C 173.296875 132.414062 172.773438 132.808594 172.273438 133.226562 C 171.769531 133.644531 171.289062 134.085938 170.832031 134.550781 C 170.371094 135.015625 169.9375 135.5 169.527344 136.007812 C 169.113281 136.515625 168.726562 137.042969 168.367188 137.585938 C 168.007812 138.128906 167.675781 138.691406 167.371094 139.269531 C 167.0625 139.847656 166.789062 140.4375 166.539062 141.042969 C 166.292969 141.644531 166.074219 142.261719 165.886719 142.886719 C 165.695312 143.511719 165.539062 144.144531 165.414062 144.785156 C 165.285156 145.425781 165.191406 146.070312 165.128906 146.722656 C 165.066406 147.371094 165.035156 148.023438 165.035156 148.675781 C 165.035156 149.328125 165.066406 149.980469 165.128906 150.632812 C 165.191406 151.28125 165.285156 151.925781 165.414062 152.566406 C 165.539062 153.207031 165.695312 153.839844 165.886719 154.46875 C 166.074219 155.09375 166.292969 155.707031 166.539062 156.3125 C 166.789062 156.914062 167.0625 157.507812 167.371094 158.082031 C 167.675781 158.660156 168.007812 159.222656 168.367188 159.765625 C 168.730469 160.3125 169.113281 160.835938 169.527344 161.34375 C 169.9375 161.851562 170.371094 162.339844 170.832031 162.804688 C 171.289062 163.269531 171.769531 163.710938 172.273438 164.128906 C 172.773438 164.546875 173.296875 164.9375 173.835938 165.304688 C 174.375 165.671875 174.933594 166.011719 175.507812 166.324219 C 176.078125 166.636719 176.667969 166.921875 177.265625 167.179688 C 177.867188 167.433594 178.480469 167.660156 179.105469 167.855469 C 179.726562 168.050781 180.359375 168.21875 180.996094 168.351562 C 181.636719 168.488281 182.28125 168.589844 182.929688 168.660156 C 183.578125 168.734375 184.230469 168.773438 184.882812 168.78125 Z M 184.882812 168.78125 " fill-opacity="1" fill-rule="nonzero"/><path fill="#ffbd54" d="M 206.246094 194.695312 L 163.496094 194.695312 C 162.839844 194.707031 162.1875 194.78125 161.542969 194.925781 C 160.898438 195.070312 160.277344 195.273438 159.675781 195.542969 C 159.074219 195.816406 158.507812 196.140625 157.972656 196.527344 C 157.4375 196.914062 156.945312 197.347656 156.5 197.832031 C 156.054688 198.320312 155.660156 198.84375 155.320312 199.410156 C 154.984375 199.976562 154.703125 200.566406 154.484375 201.191406 C 154.265625 201.8125 154.113281 202.449219 154.023438 203.101562 C 153.9375 203.757812 153.914062 204.410156 153.960938 205.070312 L 163.914062 314.722656 C 166.363281 339.785156 203.386719 339.894531 205.757812 314.71875 L 215.710938 205.070312 C 215.773438 204.410156 215.769531 203.753906 215.691406 203.097656 C 215.617188 202.441406 215.472656 201.796875 215.265625 201.171875 C 215.054688 200.542969 214.78125 199.945312 214.445312 199.375 C 214.109375 198.804688 213.722656 198.273438 213.273438 197.785156 C 212.828125 197.296875 212.335938 196.859375 211.800781 196.476562 C 211.261719 196.089844 210.691406 195.765625 210.085938 195.496094 C 209.480469 195.230469 208.855469 195.03125 208.207031 194.894531 C 207.558594 194.761719 206.90625 194.695312 206.246094 194.695312 Z M 206.246094 194.695312 " fill-opacity="1" fill-rule="nonzero"/></svg>