<svg xmlns="http://www.w3.org/2000/svg" xmlns:xlink="http://www.w3.org/1999/xlink" width="500" zoomAndPan="magnify" viewBox="0 0 375 374.999991" height="500" preserveAspectRatio="xMidYMid meet" version="1.0"><defs><g/><clipPath id="5fbb0c89fd"><path d="M 239 122 L 301 122 L 301 169 L 239 169 Z M 239 122 " clip-rule="nonzero"/></clipPath><clipPath id="f39669ab8d"><path d="M 231.800781 123.414062 L 306.789062 122.039062 L 308.246094 201.523438 L 233.261719 202.902344 Z M 231.800781 123.414062 " clip-rule="nonzero"/></clipPath><clipPath id="bbb4e71fa8"><path d="M 231.800781 123.414062 L 306.789062 122.039062 L 308.246094 201.523438 L 233.261719 202.902344 Z M 231.800781 123.414062 " clip-rule="nonzero"/></clipPath><clipPath id="ca9ef76607"><path d="M 251 134 L 289 134 L 289 159 L 251 159 Z M 251 134 " clip-rule="nonzero"/></clipPath><clipPath id="cbf3dd9cd6"><path d="M 231.800781 123.414062 L 306.789062 122.039062 L 308.246094 201.523438 L 233.261719 202.902344 Z M 231.800781 123.414062 " clip-rule="nonzero"/></clipPath><clipPath id="1076c47dd4"><path d="M 231.800781 123.414062 L 306.789062 122.039062 L 308.246094 201.523438 L 233.261719 202.902344 Z M 231.800781 123.414062 " clip-rule="nonzero"/></clipPath><clipPath id="25c0e74a25"><path d="M 265 151 L 275 151 L 275 161 L 265 161 Z M 265 151 " clip-rule="nonzero"/></clipPath><clipPath id="f9c238c476"><path d="M 231.800781 123.414062 L 306.789062 122.039062 L 308.246094 201.523438 L 233.261719 202.902344 Z M 231.800781 123.414062 " clip-rule="nonzero"/></clipPath><clipPath id="9005e8256e"><path d="M 231.800781 123.414062 L 306.789062 122.039062 L 308.246094 201.523438 L 233.261719 202.902344 Z M 231.800781 123.414062 " clip-rule="nonzero"/></clipPath><clipPath id="8bc50e2c39"><path d="M 262 167 L 278 167 L 278 201 L 262 201 Z M 262 167 " clip-rule="nonzero"/></clipPath><clipPath id="3117433f73"><path d="M 231.800781 123.414062 L 306.789062 122.039062 L 308.246094 201.523438 L 233.261719 202.902344 Z M 231.800781 123.414062 " clip-rule="nonzero"/></clipPath><clipPath id="ce5f0b489b"><path d="M 231.800781 123.414062 L 306.789062 122.039062 L 308.246094 201.523438 L 233.261719 202.902344 Z M 231.800781 123.414062 " clip-rule="nonzero"/></clipPath><clipPath id="2080633132"><rect x="0" width="34" y="0" height="127"/></clipPath></defs><g fill="#ffffff" fill-opacity="1"><g transform="translate(11.482273, 208.88426)"><g><path d="M 8.421875 0 C 6.160156 0 4.5625 -0.175781 3.625 -0.53125 C 2.695312 -0.882812 2.234375 -1.476562 2.234375 -2.3125 C 2.234375 -3.019531 2.9375 -3.609375 4.34375 -4.078125 C 5.757812 -4.546875 6.566406 -4.914062 6.765625 -5.1875 C 7.148438 -5.675781 7.421875 -7.460938 7.578125 -10.546875 C 7.742188 -13.628906 7.828125 -19.273438 7.828125 -27.484375 C 7.828125 -35.617188 7.742188 -41.21875 7.578125 -44.28125 C 7.421875 -47.34375 7.148438 -49.117188 6.765625 -49.609375 C 6.566406 -49.878906 5.757812 -50.25 4.34375 -50.71875 C 2.9375 -51.1875 2.234375 -51.757812 2.234375 -52.4375 C 2.234375 -53.300781 2.710938 -53.921875 3.671875 -54.296875 C 4.628906 -54.679688 6.210938 -54.875 8.421875 -54.875 L 33.953125 -54.875 C 35.179688 -54.875 36.425781 -54.992188 37.6875 -55.234375 C 38.945312 -55.484375 39.601562 -55.609375 39.65625 -55.609375 C 40.65625 -55.609375 41.441406 -54.863281 42.015625 -53.375 C 42.597656 -51.894531 42.890625 -49.859375 42.890625 -47.265625 C 42.890625 -46.285156 42.722656 -45.523438 42.390625 -44.984375 C 42.054688 -44.441406 41.570312 -44.171875 40.9375 -44.171875 C 40.300781 -44.171875 39.59375 -44.867188 38.8125 -46.265625 C 38.5625 -46.710938 38.363281 -47.046875 38.21875 -47.265625 C 37.488281 -48.484375 36.640625 -49.3125 35.671875 -49.75 C 34.703125 -50.195312 33.222656 -50.421875 31.234375 -50.421875 L 21.53125 -50.421875 C 19.207031 -50.421875 17.582031 -50.316406 16.65625 -50.109375 C 15.738281 -49.898438 15.1875 -49.523438 15 -48.984375 C 14.675781 -48.222656 14.453125 -46.742188 14.328125 -44.546875 C 14.210938 -42.359375 14.15625 -38.851562 14.15625 -34.03125 L 14.15625 -33.40625 C 14.15625 -32.226562 14.25 -31.519531 14.4375 -31.28125 C 14.632812 -31.050781 15.113281 -30.9375 15.875 -30.9375 L 25.796875 -30.9375 C 27.484375 -30.9375 28.675781 -31.207031 29.375 -31.75 C 30.070312 -32.289062 30.519531 -33.304688 30.71875 -34.796875 C 30.75 -34.972656 30.785156 -35.234375 30.828125 -35.578125 C 31.128906 -37.859375 31.816406 -39 32.890625 -39 C 33.847656 -39 34.503906 -38.363281 34.859375 -37.09375 C 35.210938 -35.832031 35.390625 -33.046875 35.390625 -28.734375 C 35.390625 -24.453125 35.210938 -21.691406 34.859375 -20.453125 C 34.503906 -19.210938 33.847656 -18.59375 32.890625 -18.59375 C 31.816406 -18.59375 31.128906 -19.722656 30.828125 -21.984375 C 30.785156 -22.347656 30.75 -22.613281 30.71875 -22.78125 C 30.519531 -24.28125 30.070312 -25.296875 29.375 -25.828125 C 28.675781 -26.367188 27.484375 -26.640625 25.796875 -26.640625 L 15.875 -26.640625 C 15.164062 -26.640625 14.6875 -26.445312 14.4375 -26.0625 C 14.195312 -25.6875 14.078125 -24.898438 14.078125 -23.703125 C 14.078125 -23.410156 14.085938 -22.726562 14.109375 -21.65625 C 14.140625 -20.59375 14.15625 -19.671875 14.15625 -18.890625 C 14.15625 -15.316406 14.226562 -12.5625 14.375 -10.625 C 14.519531 -8.6875 14.75 -7.347656 15.0625 -6.609375 C 15.382812 -5.804688 16.175781 -5.234375 17.4375 -4.890625 C 18.695312 -4.546875 20.738281 -4.375 23.5625 -4.375 L 30.3125 -4.375 C 33.007812 -4.375 35.046875 -4.71875 36.421875 -5.40625 C 37.796875 -6.09375 38.972656 -7.316406 39.953125 -9.078125 C 40.335938 -9.785156 40.753906 -10.738281 41.203125 -11.9375 C 41.804688 -13.65625 42.503906 -14.515625 43.296875 -14.515625 C 43.878906 -14.515625 44.347656 -14.195312 44.703125 -13.5625 C 45.054688 -12.925781 45.234375 -12.066406 45.234375 -10.984375 C 45.234375 -8.023438 44.734375 -5.300781 43.734375 -2.8125 C 42.734375 -0.320312 41.703125 0.921875 40.640625 0.921875 C 40.523438 0.921875 40.207031 0.847656 39.6875 0.703125 C 38 0.234375 36.3125 0 34.625 0 Z M 8.421875 0 "/></g></g></g><g fill="#ffffff" fill-opacity="1"><g transform="translate(59.870122, 208.88426)"><g><path d="M 20.46875 -7.171875 L 20.90625 -7.171875 C 23.894531 -12.921875 26.328125 -18.15625 28.203125 -22.875 C 30.078125 -27.59375 31.015625 -30.675781 31.015625 -32.125 C 31.015625 -32.5625 30.910156 -32.90625 30.703125 -33.15625 C 30.492188 -33.414062 29.988281 -33.707031 29.1875 -34.03125 C 29.0625 -34.082031 28.875 -34.15625 28.625 -34.25 C 27.300781 -34.769531 26.640625 -35.320312 26.640625 -35.90625 C 26.640625 -36.664062 27.164062 -37.203125 28.21875 -37.515625 C 29.28125 -37.835938 31.035156 -38 33.484375 -38 C 35.953125 -38 37.710938 -37.835938 38.765625 -37.515625 C 39.828125 -37.203125 40.359375 -36.664062 40.359375 -35.90625 C 40.359375 -35.363281 39.816406 -34.910156 38.734375 -34.546875 C 38.222656 -34.367188 37.832031 -34.222656 37.5625 -34.109375 C 36.851562 -33.785156 36.273438 -33.347656 35.828125 -32.796875 C 35.390625 -32.242188 34.914062 -31.269531 34.40625 -29.875 L 33.953125 -28.78125 C 26.335938 -8.925781 21.625 1 19.8125 1 C 18.707031 1 17.375 -0.519531 15.8125 -3.5625 C 14.257812 -6.601562 11.144531 -14.394531 6.46875 -26.9375 C 6.34375 -27.28125 6.160156 -27.78125 5.921875 -28.4375 C 4.890625 -31.3125 4.101562 -32.992188 3.5625 -33.484375 C 3.320312 -33.703125 2.703125 -33.984375 1.703125 -34.328125 C 0.710938 -34.671875 0.21875 -35.148438 0.21875 -35.765625 C 0.21875 -36.546875 0.789062 -37.113281 1.9375 -37.46875 C 3.09375 -37.820312 4.984375 -38 7.609375 -38 C 10.421875 -38 12.414062 -37.828125 13.59375 -37.484375 C 14.769531 -37.140625 15.359375 -36.566406 15.359375 -35.765625 C 15.359375 -35.097656 14.660156 -34.554688 13.265625 -34.140625 C 12.972656 -34.046875 12.773438 -33.984375 12.671875 -33.953125 C 12.210938 -33.785156 11.84375 -33.503906 11.5625 -33.109375 C 11.28125 -32.722656 11.140625 -32.269531 11.140625 -31.75 C 11.140625 -30.601562 12 -27.71875 13.71875 -23.09375 C 15.445312 -18.476562 17.695312 -13.171875 20.46875 -7.171875 Z M 20.46875 -7.171875 "/></g></g></g><g fill="#ffffff" fill-opacity="1"><g transform="translate(101.863997, 208.88426)"><g><path d="M 10.984375 -23.5625 L 29.578125 -23.5625 C 30.140625 -23.5625 30.519531 -23.664062 30.71875 -23.875 C 30.914062 -24.082031 31.015625 -24.476562 31.015625 -25.0625 C 31.015625 -27.925781 30.046875 -30.304688 28.109375 -32.203125 C 26.179688 -34.109375 23.734375 -35.0625 20.765625 -35.0625 C 19.191406 -35.0625 17.703125 -34.71875 16.296875 -34.03125 C 14.890625 -33.34375 13.644531 -32.363281 12.5625 -31.09375 C 11.707031 -30.0625 11.015625 -28.945312 10.484375 -27.75 C 9.960938 -26.550781 9.703125 -25.507812 9.703125 -24.625 C 9.703125 -24.226562 9.789062 -23.953125 9.96875 -23.796875 C 10.15625 -23.640625 10.492188 -23.5625 10.984375 -23.5625 Z M 34.03125 -20.390625 L 10.84375 -20.390625 C 10.351562 -20.390625 10.015625 -20.289062 9.828125 -20.09375 C 9.648438 -19.90625 9.5625 -19.53125 9.5625 -18.96875 C 9.5625 -14.382812 10.769531 -10.628906 13.1875 -7.703125 C 15.613281 -4.773438 18.710938 -3.3125 22.484375 -3.3125 C 23.960938 -3.3125 25.390625 -3.554688 26.765625 -4.046875 C 28.148438 -4.535156 29.410156 -5.242188 30.546875 -6.171875 C 31.128906 -6.640625 31.941406 -7.460938 32.984375 -8.640625 C 34.023438 -9.816406 34.898438 -10.40625 35.609375 -10.40625 C 36.023438 -10.40625 36.367188 -10.273438 36.640625 -10.015625 C 36.910156 -9.753906 37.046875 -9.429688 37.046875 -9.046875 C 37.046875 -8.503906 36.878906 -7.90625 36.546875 -7.25 C 36.210938 -6.601562 35.742188 -5.9375 35.140625 -5.25 C 33.296875 -3.21875 31.164062 -1.664062 28.75 -0.59375 C 26.34375 0.46875 23.753906 1 20.984375 1 C 15.742188 1 11.398438 -0.816406 7.953125 -4.453125 C 4.515625 -8.097656 2.796875 -12.691406 2.796875 -18.234375 C 2.796875 -24.109375 4.59375 -28.972656 8.1875 -32.828125 C 11.789062 -36.691406 16.3125 -38.625 21.75 -38.625 C 26.457031 -38.625 30.195312 -37.300781 32.96875 -34.65625 C 35.738281 -32.007812 37.125 -28.429688 37.125 -23.921875 C 37.125 -22.453125 36.960938 -21.492188 36.640625 -21.046875 C 36.316406 -20.609375 35.445312 -20.390625 34.03125 -20.390625 Z M 34.03125 -20.390625 "/></g></g></g><g fill="#ffffff" fill-opacity="1"><g transform="translate(144.519317, 208.88426)"><g><path d="M 12.125 -32.75 C 12.125 -32.300781 12.160156 -32.007812 12.234375 -31.875 C 12.304688 -31.738281 12.414062 -31.671875 12.5625 -31.671875 C 12.90625 -31.671875 13.410156 -32.125 14.078125 -33.03125 C 14.617188 -33.789062 15.070312 -34.367188 15.4375 -34.765625 C 16.582031 -36.085938 17.914062 -37.070312 19.4375 -37.71875 C 20.957031 -38.375 22.6875 -38.703125 24.625 -38.703125 C 28.125 -38.703125 30.921875 -37.800781 33.015625 -36 C 35.109375 -34.195312 36.570312 -31.429688 37.40625 -27.703125 C 37.5625 -27.046875 37.675781 -26.21875 37.75 -25.21875 C 37.820312 -24.226562 37.859375 -22.898438 37.859375 -21.234375 C 37.859375 -20.703125 37.84375 -19.832031 37.8125 -18.625 C 37.789062 -17.425781 37.78125 -16.484375 37.78125 -15.796875 C 37.78125 -14.523438 37.796875 -13.175781 37.828125 -11.75 C 37.867188 -10.332031 37.925781 -8.851562 38 -7.3125 C 38.050781 -6.1875 38.171875 -5.394531 38.359375 -4.9375 C 38.554688 -4.488281 38.898438 -4.117188 39.390625 -3.828125 C 39.585938 -3.703125 39.96875 -3.566406 40.53125 -3.421875 C 41.707031 -3.097656 42.296875 -2.609375 42.296875 -1.953125 C 42.296875 -1.160156 41.71875 -0.585938 40.5625 -0.234375 C 39.414062 0.117188 37.53125 0.296875 34.90625 0.296875 C 32.3125 0.296875 30.4375 0.117188 29.28125 -0.234375 C 28.132812 -0.585938 27.5625 -1.160156 27.5625 -1.953125 C 27.5625 -2.585938 28.125 -3.082031 29.25 -3.4375 C 30.375 -3.789062 31.085938 -4.203125 31.390625 -4.671875 C 31.628906 -5.054688 31.796875 -6.144531 31.890625 -7.9375 C 31.992188 -9.726562 32.046875 -13.976562 32.046875 -20.6875 C 32.046875 -25.34375 31.390625 -28.660156 30.078125 -30.640625 C 28.765625 -32.628906 26.613281 -33.625 23.625 -33.625 C 21.695312 -33.625 19.898438 -33.191406 18.234375 -32.328125 C 16.566406 -31.472656 15.082031 -30.203125 13.78125 -28.515625 C 13.195312 -27.804688 12.785156 -27.007812 12.546875 -26.125 C 12.316406 -25.25 12.203125 -23.941406 12.203125 -22.203125 L 12.203125 -19.484375 C 12.203125 -13.960938 12.25 -10.21875 12.34375 -8.25 C 12.445312 -6.28125 12.617188 -5.085938 12.859375 -4.671875 C 13.148438 -4.203125 13.863281 -3.789062 15 -3.4375 C 16.144531 -3.082031 16.71875 -2.585938 16.71875 -1.953125 C 16.71875 -1.160156 16.132812 -0.585938 14.96875 -0.234375 C 13.8125 0.117188 11.929688 0.296875 9.328125 0.296875 C 6.710938 0.296875 4.816406 0.117188 3.640625 -0.234375 C 2.460938 -0.585938 1.875 -1.160156 1.875 -1.953125 C 1.875 -2.585938 2.441406 -3.082031 3.578125 -3.4375 C 4.722656 -3.789062 5.441406 -4.203125 5.734375 -4.671875 C 6.003906 -5.160156 6.191406 -6.5 6.296875 -8.6875 C 6.410156 -10.882812 6.46875 -14.484375 6.46875 -19.484375 C 6.46875 -23.273438 6.382812 -26.210938 6.21875 -28.296875 C 6.0625 -30.378906 5.828125 -31.65625 5.515625 -32.125 C 5.296875 -32.46875 4.535156 -32.726562 3.234375 -32.90625 C 1.929688 -33.09375 1.28125 -33.613281 1.28125 -34.46875 C 1.28125 -35.351562 2.316406 -36.28125 4.390625 -37.25 C 6.460938 -38.21875 8.441406 -38.703125 10.328125 -38.703125 C 10.984375 -38.703125 11.445312 -38.503906 11.71875 -38.109375 C 11.988281 -37.710938 12.125 -36.976562 12.125 -35.90625 Z M 12.125 -32.75 "/></g></g></g><g fill="#ffffff" fill-opacity="1"><g transform="translate(190.812588, 208.88426)"><g><path d="M 6.09375 -33.109375 L 2.9375 -33.109375 C 2.570312 -33.109375 2.289062 -33.175781 2.09375 -33.3125 C 1.894531 -33.445312 1.796875 -33.640625 1.796875 -33.890625 L 1.796875 -34.90625 C 1.796875 -35.644531 2.71875 -37.03125 4.5625 -39.0625 C 5.09375 -39.625 5.492188 -40.066406 5.765625 -40.390625 C 6.054688 -40.703125 6.453125 -41.144531 6.953125 -41.71875 C 8.785156 -43.820312 10.03125 -44.875 10.6875 -44.875 C 11.082031 -44.875 11.382812 -44.773438 11.59375 -44.578125 C 11.800781 -44.378906 11.90625 -44.097656 11.90625 -43.734375 L 11.90625 -37.046875 L 19.484375 -37.046875 C 19.972656 -37.046875 20.320312 -36.925781 20.53125 -36.6875 C 20.738281 -36.457031 20.84375 -36.070312 20.84375 -35.53125 L 20.84375 -34.546875 C 20.84375 -34.054688 20.726562 -33.691406 20.5 -33.453125 C 20.28125 -33.222656 19.941406 -33.109375 19.484375 -33.109375 L 12.71875 -33.109375 C 12.46875 -33.109375 12.269531 -33.003906 12.125 -32.796875 C 11.976562 -32.585938 11.90625 -32.289062 11.90625 -31.90625 L 11.90625 -11.5 C 11.90625 -8.414062 12.203125 -6.328125 12.796875 -5.234375 C 13.398438 -4.148438 14.453125 -3.609375 15.953125 -3.609375 C 16.660156 -3.609375 17.488281 -3.804688 18.4375 -4.203125 C 19.394531 -4.609375 20 -4.8125 20.25 -4.8125 C 20.644531 -4.8125 20.957031 -4.703125 21.1875 -4.484375 C 21.414062 -4.265625 21.53125 -3.972656 21.53125 -3.609375 C 21.53125 -2.523438 20.707031 -1.472656 19.0625 -0.453125 C 17.425781 0.554688 15.59375 1.0625 13.5625 1.0625 C 10.894531 1.0625 8.984375 0.242188 7.828125 -1.390625 C 6.671875 -3.035156 6.09375 -5.804688 6.09375 -9.703125 Z M 6.09375 -33.109375 "/></g></g></g><g fill="#ffffff" fill-opacity="1"><g transform="translate(216.0866, 208.88426)"><g><path d="M 27.484375 -4.375 C 30.160156 -4.375 32.179688 -4.71875 33.546875 -5.40625 C 34.921875 -6.09375 36.097656 -7.316406 37.078125 -9.078125 C 37.472656 -9.765625 37.890625 -10.71875 38.328125 -11.9375 C 38.941406 -13.65625 39.640625 -14.515625 40.421875 -14.515625 C 40.984375 -14.515625 41.4375 -14.203125 41.78125 -13.578125 C 42.125 -12.953125 42.296875 -12.085938 42.296875 -10.984375 C 42.296875 -8.023438 41.789062 -5.300781 40.78125 -2.8125 C 39.78125 -0.320312 38.753906 0.921875 37.703125 0.921875 C 37.578125 0.921875 37.269531 0.847656 36.78125 0.703125 C 35.113281 0.234375 33.4375 0 31.75 0 L 9.484375 0 C 7.222656 0 5.628906 -0.175781 4.703125 -0.53125 C 3.773438 -0.882812 3.3125 -1.476562 3.3125 -2.3125 C 3.3125 -3.019531 4.023438 -3.609375 5.453125 -4.078125 C 6.890625 -4.546875 7.707031 -4.914062 7.90625 -5.1875 C 8.289062 -5.675781 8.5625 -7.460938 8.71875 -10.546875 C 8.882812 -13.628906 8.96875 -19.273438 8.96875 -27.484375 C 8.96875 -35.617188 8.882812 -41.21875 8.71875 -44.28125 C 8.5625 -47.34375 8.289062 -49.117188 7.90625 -49.609375 C 7.707031 -49.878906 6.890625 -50.25 5.453125 -50.71875 C 4.023438 -51.1875 3.3125 -51.757812 3.3125 -52.4375 C 3.3125 -53.394531 4 -54.085938 5.375 -54.515625 C 6.757812 -54.941406 8.984375 -55.15625 12.046875 -55.15625 C 15.085938 -55.15625 17.300781 -54.941406 18.6875 -54.515625 C 20.070312 -54.085938 20.765625 -53.394531 20.765625 -52.4375 C 20.765625 -51.757812 20.050781 -51.1875 18.625 -50.71875 C 17.207031 -50.25 16.390625 -49.867188 16.171875 -49.578125 C 15.773438 -49.066406 15.488281 -47.054688 15.3125 -43.546875 C 15.144531 -40.046875 15.0625 -34.691406 15.0625 -27.484375 C 15.0625 -20.359375 15.132812 -15.304688 15.28125 -12.328125 C 15.4375 -9.347656 15.679688 -7.441406 16.015625 -6.609375 C 16.359375 -5.804688 17.164062 -5.234375 18.4375 -4.890625 C 19.71875 -4.546875 21.78125 -4.375 24.625 -4.375 Z M 27.484375 -4.375 "/></g></g></g><g fill="#ffffff" fill-opacity="1"><g transform="translate(261.608173, 208.88426)"><g><path d="M 5.25 -50.859375 C 5.25 -52.035156 5.640625 -53.019531 6.421875 -53.8125 C 7.210938 -54.613281 8.179688 -55.015625 9.328125 -55.015625 C 10.484375 -55.015625 11.421875 -54.671875 12.140625 -53.984375 C 12.867188 -53.296875 13.234375 -52.414062 13.234375 -51.34375 C 13.234375 -50.238281 12.835938 -49.289062 12.046875 -48.5 C 11.265625 -47.71875 10.3125 -47.328125 9.1875 -47.328125 C 8.082031 -47.328125 7.148438 -47.664062 6.390625 -48.34375 C 5.628906 -49.019531 5.25 -49.859375 5.25 -50.859375 Z M 6.6875 -14.296875 C 6.6875 -20.203125 6.613281 -24.519531 6.46875 -27.25 C 6.320312 -29.976562 6.078125 -31.601562 5.734375 -32.125 C 5.515625 -32.46875 4.753906 -32.726562 3.453125 -32.90625 C 2.148438 -33.09375 1.5 -33.613281 1.5 -34.46875 C 1.5 -34.957031 1.703125 -35.390625 2.109375 -35.765625 C 2.515625 -36.148438 3.21875 -36.550781 4.21875 -36.96875 C 5.445312 -37.457031 6.664062 -37.851562 7.875 -38.15625 C 9.09375 -38.46875 10.054688 -38.625 10.765625 -38.625 C 11.429688 -38.625 11.894531 -38.429688 12.15625 -38.046875 C 12.425781 -37.671875 12.5625 -36.957031 12.5625 -35.90625 C 12.5625 -35.65625 12.550781 -34.945312 12.53125 -33.78125 C 12.363281 -26.988281 12.28125 -20.113281 12.28125 -13.15625 C 12.28125 -9.820312 12.351562 -7.578125 12.5 -6.421875 C 12.644531 -5.273438 12.890625 -4.539062 13.234375 -4.21875 C 13.503906 -3.976562 14.148438 -3.695312 15.171875 -3.375 C 16.203125 -3.0625 16.71875 -2.585938 16.71875 -1.953125 C 16.71875 -1.191406 16.140625 -0.625 14.984375 -0.25 C 13.835938 0.113281 12.03125 0.296875 9.5625 0.296875 C 6.957031 0.296875 5.070312 0.117188 3.90625 -0.234375 C 2.75 -0.585938 2.171875 -1.160156 2.171875 -1.953125 C 2.171875 -2.585938 2.679688 -3.0625 3.703125 -3.375 C 4.734375 -3.695312 5.382812 -3.976562 5.65625 -4.21875 C 6.019531 -4.5625 6.28125 -5.4375 6.4375 -6.84375 C 6.601562 -8.257812 6.6875 -10.742188 6.6875 -14.296875 Z M 6.6875 -14.296875 "/></g></g></g><g fill="#ffffff" fill-opacity="1"><g transform="translate(283.133982, 208.88426)"><g><path d="M 20.46875 -7.171875 L 20.90625 -7.171875 C 23.894531 -12.921875 26.328125 -18.15625 28.203125 -22.875 C 30.078125 -27.59375 31.015625 -30.675781 31.015625 -32.125 C 31.015625 -32.5625 30.910156 -32.90625 30.703125 -33.15625 C 30.492188 -33.414062 29.988281 -33.707031 29.1875 -34.03125 C 29.0625 -34.082031 28.875 -34.15625 28.625 -34.25 C 27.300781 -34.769531 26.640625 -35.320312 26.640625 -35.90625 C 26.640625 -36.664062 27.164062 -37.203125 28.21875 -37.515625 C 29.28125 -37.835938 31.035156 -38 33.484375 -38 C 35.953125 -38 37.710938 -37.835938 38.765625 -37.515625 C 39.828125 -37.203125 40.359375 -36.664062 40.359375 -35.90625 C 40.359375 -35.363281 39.816406 -34.910156 38.734375 -34.546875 C 38.222656 -34.367188 37.832031 -34.222656 37.5625 -34.109375 C 36.851562 -33.785156 36.273438 -33.347656 35.828125 -32.796875 C 35.390625 -32.242188 34.914062 -31.269531 34.40625 -29.875 L 33.953125 -28.78125 C 26.335938 -8.925781 21.625 1 19.8125 1 C 18.707031 1 17.375 -0.519531 15.8125 -3.5625 C 14.257812 -6.601562 11.144531 -14.394531 6.46875 -26.9375 C 6.34375 -27.28125 6.160156 -27.78125 5.921875 -28.4375 C 4.890625 -31.3125 4.101562 -32.992188 3.5625 -33.484375 C 3.320312 -33.703125 2.703125 -33.984375 1.703125 -34.328125 C 0.710938 -34.671875 0.21875 -35.148438 0.21875 -35.765625 C 0.21875 -36.546875 0.789062 -37.113281 1.9375 -37.46875 C 3.09375 -37.820312 4.984375 -38 7.609375 -38 C 10.421875 -38 12.414062 -37.828125 13.59375 -37.484375 C 14.769531 -37.140625 15.359375 -36.566406 15.359375 -35.765625 C 15.359375 -35.097656 14.660156 -34.554688 13.265625 -34.140625 C 12.972656 -34.046875 12.773438 -33.984375 12.671875 -33.953125 C 12.210938 -33.785156 11.84375 -33.503906 11.5625 -33.109375 C 11.28125 -32.722656 11.140625 -32.269531 11.140625 -31.75 C 11.140625 -30.601562 12 -27.71875 13.71875 -23.09375 C 15.445312 -18.476562 17.695312 -13.171875 20.46875 -7.171875 Z M 20.46875 -7.171875 "/></g></g></g><g fill="#ffffff" fill-opacity="1"><g transform="translate(325.127868, 208.88426)"><g><path d="M 10.984375 -23.5625 L 29.578125 -23.5625 C 30.140625 -23.5625 30.519531 -23.664062 30.71875 -23.875 C 30.914062 -24.082031 31.015625 -24.476562 31.015625 -25.0625 C 31.015625 -27.925781 30.046875 -30.304688 28.109375 -32.203125 C 26.179688 -34.109375 23.734375 -35.0625 20.765625 -35.0625 C 19.191406 -35.0625 17.703125 -34.71875 16.296875 -34.03125 C 14.890625 -33.34375 13.644531 -32.363281 12.5625 -31.09375 C 11.707031 -30.0625 11.015625 -28.945312 10.484375 -27.75 C 9.960938 -26.550781 9.703125 -25.507812 9.703125 -24.625 C 9.703125 -24.226562 9.789062 -23.953125 9.96875 -23.796875 C 10.15625 -23.640625 10.492188 -23.5625 10.984375 -23.5625 Z M 34.03125 -20.390625 L 10.84375 -20.390625 C 10.351562 -20.390625 10.015625 -20.289062 9.828125 -20.09375 C 9.648438 -19.90625 9.5625 -19.53125 9.5625 -18.96875 C 9.5625 -14.382812 10.769531 -10.628906 13.1875 -7.703125 C 15.613281 -4.773438 18.710938 -3.3125 22.484375 -3.3125 C 23.960938 -3.3125 25.390625 -3.554688 26.765625 -4.046875 C 28.148438 -4.535156 29.410156 -5.242188 30.546875 -6.171875 C 31.128906 -6.640625 31.941406 -7.460938 32.984375 -8.640625 C 34.023438 -9.816406 34.898438 -10.40625 35.609375 -10.40625 C 36.023438 -10.40625 36.367188 -10.273438 36.640625 -10.015625 C 36.910156 -9.753906 37.046875 -9.429688 37.046875 -9.046875 C 37.046875 -8.503906 36.878906 -7.90625 36.546875 -7.25 C 36.210938 -6.601562 35.742188 -5.9375 35.140625 -5.25 C 33.296875 -3.21875 31.164062 -1.664062 28.75 -0.59375 C 26.34375 0.46875 23.753906 1 20.984375 1 C 15.742188 1 11.398438 -0.816406 7.953125 -4.453125 C 4.515625 -8.097656 2.796875 -12.691406 2.796875 -18.234375 C 2.796875 -24.109375 4.59375 -28.972656 8.1875 -32.828125 C 11.789062 -36.691406 16.3125 -38.625 21.75 -38.625 C 26.457031 -38.625 30.195312 -37.300781 32.96875 -34.65625 C 35.738281 -32.007812 37.125 -28.429688 37.125 -23.921875 C 37.125 -22.453125 36.960938 -21.492188 36.640625 -21.046875 C 36.316406 -20.609375 35.445312 -20.390625 34.03125 -20.390625 Z M 34.03125 -20.390625 "/></g></g></g><g clip-path="url(#5fbb0c89fd)"><g clip-path="url(#f39669ab8d)"><g clip-path="url(#bbb4e71fa8)"><path fill="#ffffff" d="M 269.476562 123.011719 C 246.804688 123.140625 232.328125 148.917969 243.988281 168.335938 L 248.082031 168.257812 C 235.976562 151.25 248.636719 126.613281 269.539062 126.519531 C 290.4375 125.847656 304.011719 149.996094 292.511719 167.445312 L 296.617188 167.367188 C 307.589844 147.535156 292.144531 122.304688 269.476562 123.011719 Z M 269.476562 123.011719 " fill-opacity="1" fill-rule="nonzero"/></g></g></g><g clip-path="url(#ca9ef76607)"><g clip-path="url(#cbf3dd9cd6)"><g clip-path="url(#1076c47dd4)"><path fill="#ffffff" d="M 269.691406 134.703125 C 269.085938 134.714844 268.484375 134.757812 267.882812 134.828125 C 267.285156 134.902344 266.6875 135 266.097656 135.128906 C 265.507812 135.261719 264.925781 135.417969 264.351562 135.605469 C 263.777344 135.792969 263.210938 136.007812 262.660156 136.246094 C 262.105469 136.488281 261.566406 136.757812 261.039062 137.054688 C 260.511719 137.347656 260 137.667969 259.503906 138.015625 C 259.007812 138.359375 258.53125 138.726562 258.070312 139.121094 C 257.609375 139.511719 257.171875 139.925781 256.753906 140.363281 C 256.332031 140.796875 255.9375 141.25 255.5625 141.726562 C 255.1875 142.199219 254.835938 142.691406 254.511719 143.199219 C 254.183594 143.707031 253.882812 144.230469 253.609375 144.769531 C 253.335938 145.308594 253.085938 145.859375 252.867188 146.421875 C 252.644531 146.984375 252.453125 147.554688 252.289062 148.136719 C 252.121094 148.71875 251.988281 149.304688 251.878906 149.898438 C 251.773438 150.496094 251.695312 151.09375 251.648438 151.695312 C 251.597656 152.296875 251.578125 152.902344 251.589844 153.503906 C 251.621094 155.222656 251.890625 156.90625 252.398438 158.546875 L 256.058594 158.480469 C 255.847656 157.921875 255.667969 157.351562 255.523438 156.773438 C 255.378906 156.191406 255.269531 155.605469 255.195312 155.011719 C 255.121094 154.417969 255.082031 153.824219 255.082031 153.226562 C 255.078125 152.628906 255.113281 152.035156 255.179688 151.441406 C 255.25 150.847656 255.351562 150.257812 255.492188 149.679688 C 255.632812 149.097656 255.804688 148.527344 256.011719 147.964844 C 256.222656 147.40625 256.460938 146.859375 256.734375 146.328125 C 257.007812 145.796875 257.3125 145.28125 257.644531 144.789062 C 257.980469 144.292969 258.34375 143.820312 258.734375 143.367188 C 259.125 142.917969 259.542969 142.488281 259.988281 142.089844 C 260.429688 141.6875 260.894531 141.3125 261.382812 140.96875 C 261.867188 140.621094 262.375 140.304688 262.898438 140.019531 C 263.425781 139.734375 263.964844 139.484375 264.519531 139.261719 C 265.078125 139.042969 265.644531 138.855469 266.222656 138.703125 C 266.800781 138.550781 267.382812 138.433594 267.976562 138.351562 C 268.566406 138.269531 269.164062 138.222656 269.761719 138.210938 C 270.359375 138.199219 270.953125 138.226562 271.546875 138.285156 C 272.144531 138.347656 272.730469 138.441406 273.316406 138.574219 C 273.898438 138.703125 274.472656 138.871094 275.035156 139.070312 C 275.597656 139.269531 276.148438 139.503906 276.683594 139.769531 C 277.21875 140.035156 277.734375 140.332031 278.234375 140.65625 C 278.734375 140.984375 279.210938 141.34375 279.667969 141.726562 C 280.125 142.113281 280.558594 142.523438 280.964844 142.960938 C 281.375 143.398438 281.753906 143.855469 282.105469 144.339844 C 282.460938 144.820312 282.78125 145.324219 283.074219 145.84375 C 283.367188 146.367188 283.628906 146.902344 283.855469 147.453125 C 284.085938 148.007812 284.277344 148.570312 284.4375 149.148438 C 284.597656 149.722656 284.726562 150.304688 284.816406 150.894531 C 284.90625 151.488281 284.960938 152.082031 284.980469 152.679688 C 285 153.277344 284.984375 153.871094 284.929688 154.46875 C 284.878906 155.0625 284.792969 155.652344 284.667969 156.238281 C 284.546875 156.820312 284.386719 157.398438 284.195312 157.964844 L 287.867188 157.894531 C 288.316406 156.234375 288.523438 154.546875 288.492188 152.828125 C 288.480469 152.222656 288.4375 151.621094 288.367188 151.019531 C 288.296875 150.417969 288.195312 149.824219 288.066406 149.234375 C 287.9375 148.644531 287.78125 148.058594 287.59375 147.484375 C 287.40625 146.910156 287.191406 146.34375 286.949219 145.792969 C 286.707031 145.238281 286.441406 144.695312 286.144531 144.167969 C 285.851562 143.640625 285.53125 143.128906 285.183594 142.632812 C 284.839844 142.136719 284.472656 141.65625 284.078125 141.199219 C 283.6875 140.738281 283.273438 140.296875 282.839844 139.878906 C 282.402344 139.457031 281.949219 139.0625 281.472656 138.6875 C 281 138.3125 280.507812 137.960938 280 137.632812 C 279.492188 137.308594 278.96875 137.007812 278.429688 136.730469 C 277.890625 136.457031 277.339844 136.207031 276.777344 135.984375 C 276.214844 135.765625 275.644531 135.570312 275.0625 135.40625 C 274.480469 135.242188 273.890625 135.105469 273.296875 134.996094 C 272.703125 134.890625 272.101562 134.8125 271.5 134.761719 C 270.898438 134.714844 270.292969 134.695312 269.691406 134.703125 Z M 269.691406 134.703125 " fill-opacity="1" fill-rule="nonzero"/></g></g></g><g clip-path="url(#25c0e74a25)"><g clip-path="url(#f9c238c476)"><g clip-path="url(#9005e8256e)"><path fill="#ffffff" d="M 270.1875 160.847656 C 270.503906 160.839844 270.816406 160.796875 271.125 160.726562 C 271.433594 160.65625 271.730469 160.554688 272.019531 160.425781 C 272.304688 160.296875 272.578125 160.144531 272.835938 159.960938 C 273.09375 159.777344 273.332031 159.574219 273.550781 159.34375 C 273.769531 159.113281 273.960938 158.867188 274.132812 158.601562 C 274.300781 158.335938 274.441406 158.054688 274.558594 157.757812 C 274.671875 157.464844 274.757812 157.164062 274.8125 156.851562 C 274.867188 156.539062 274.890625 156.226562 274.886719 155.910156 C 274.878906 155.597656 274.84375 155.285156 274.777344 154.976562 C 274.710938 154.667969 274.613281 154.367188 274.488281 154.078125 C 274.363281 153.789062 274.210938 153.511719 274.03125 153.253906 C 273.855469 152.992188 273.652344 152.75 273.425781 152.53125 C 273.199219 152.308594 272.953125 152.113281 272.691406 151.941406 C 272.425781 151.769531 272.148438 151.621094 271.855469 151.503906 C 271.5625 151.386719 271.261719 151.296875 270.949219 151.238281 C 270.640625 151.179688 270.328125 151.148438 270.011719 151.152344 C 269.695312 151.160156 269.382812 151.203125 269.074219 151.273438 C 268.769531 151.34375 268.46875 151.441406 268.179688 151.570312 C 267.894531 151.699219 267.621094 151.855469 267.363281 152.039062 C 267.105469 152.222656 266.867188 152.425781 266.648438 152.65625 C 266.429688 152.882812 266.238281 153.132812 266.066406 153.398438 C 265.898438 153.664062 265.757812 153.945312 265.640625 154.238281 C 265.527344 154.535156 265.441406 154.835938 265.386719 155.148438 C 265.332031 155.457031 265.308594 155.773438 265.3125 156.085938 C 265.320312 156.402344 265.355469 156.714844 265.421875 157.023438 C 265.488281 157.332031 265.585938 157.632812 265.710938 157.921875 C 265.835938 158.210938 265.988281 158.488281 266.167969 158.746094 C 266.34375 159.007812 266.546875 159.246094 266.773438 159.46875 C 267 159.6875 267.246094 159.886719 267.507812 160.058594 C 267.773438 160.230469 268.050781 160.375 268.34375 160.496094 C 268.636719 160.613281 268.941406 160.703125 269.25 160.761719 C 269.558594 160.820312 269.871094 160.851562 270.1875 160.847656 Z M 270.1875 160.847656 " fill-opacity="1" fill-rule="nonzero"/></g></g></g><g clip-path="url(#8bc50e2c39)"><g clip-path="url(#3117433f73)"><g clip-path="url(#ce5f0b489b)"><path fill="#ffffff" d="M 275.453125 167.003906 L 265.148438 167.191406 C 264.824219 167.203125 264.519531 167.277344 264.230469 167.414062 C 263.9375 167.550781 263.6875 167.738281 263.472656 167.980469 C 263.261719 168.21875 263.101562 168.492188 263.003906 168.796875 C 262.902344 169.101562 262.863281 169.414062 262.890625 169.734375 L 265.777344 196.132812 C 266.480469 202.167969 275.410156 202.03125 275.867188 195.949219 L 277.785156 169.460938 C 277.808594 169.140625 277.765625 168.828125 277.660156 168.523438 C 277.550781 168.21875 277.386719 167.949219 277.164062 167.71875 C 276.941406 167.484375 276.683594 167.304688 276.386719 167.179688 C 276.085938 167.054688 275.777344 166.996094 275.453125 167.003906 Z M 275.453125 167.003906 " fill-opacity="1" fill-rule="nonzero"/></g></g></g><g fill="#ffffff" fill-opacity="1"><g transform="translate(108.545309, 163.022941)"><g><path d="M 7.625 -4.390625 C 7.625 -6.085938 8.164062 -7.492188 9.25 -8.609375 C 10.34375 -9.734375 11.71875 -10.296875 13.375 -10.296875 C 15.039062 -10.296875 16.441406 -9.726562 17.578125 -8.59375 C 18.710938 -7.457031 19.28125 -6.054688 19.28125 -4.390625 C 19.28125 -2.796875 18.710938 -1.425781 17.578125 -0.28125 C 16.441406 0.851562 15.039062 1.421875 13.375 1.421875 C 11.75 1.421875 10.382812 0.867188 9.28125 -0.234375 C 8.175781 -1.347656 7.625 -2.734375 7.625 -4.390625 Z M 7.625 -4.390625 "/></g></g></g><g fill="#ffffff" fill-opacity="1"><g transform="translate(332.545295, 163.022941)"><g><path d="M 7.625 -4.390625 C 7.625 -6.085938 8.164062 -7.492188 9.25 -8.609375 C 10.34375 -9.734375 11.71875 -10.296875 13.375 -10.296875 C 15.039062 -10.296875 16.441406 -9.726562 17.578125 -8.59375 C 18.710938 -7.457031 19.28125 -6.054688 19.28125 -4.390625 C 19.28125 -2.796875 18.710938 -1.425781 17.578125 -0.28125 C 16.441406 0.851562 15.039062 1.421875 13.375 1.421875 C 11.75 1.421875 10.382812 0.867188 9.28125 -0.234375 C 8.175781 -1.347656 7.625 -2.734375 7.625 -4.390625 Z M 7.625 -4.390625 "/></g></g></g><g transform="matrix(1, 0, 0, 1, 255, 59)"><g clip-path="url(#2080633132)"><g fill="#ffffff" fill-opacity="1"><g transform="translate(1.057869, 100.725769)"><g><path d="M 7.96875 -4.59375 C 7.96875 -6.375 8.539062 -7.847656 9.6875 -9.015625 C 10.832031 -10.191406 12.273438 -10.78125 14.015625 -10.78125 C 15.742188 -10.78125 17.203125 -10.179688 18.390625 -8.984375 C 19.585938 -7.796875 20.1875 -6.332031 20.1875 -4.59375 C 20.1875 -2.925781 19.585938 -1.492188 18.390625 -0.296875 C 17.203125 0.890625 15.742188 1.484375 14.015625 1.484375 C 12.304688 1.484375 10.867188 0.90625 9.703125 -0.25 C 8.546875 -1.414062 7.96875 -2.863281 7.96875 -4.59375 Z M 7.96875 -4.59375 "/></g></g></g></g></g></svg>